<svg width="1524" height="320" viewBox="0 0 1524 320" fill="none" xmlns="http://www.w3.org/2000/svg">
<path d="M0 61.3174L217.17 32.5748L435.61 38.9621L652.78 58.1238L871.22 48.5429L1088.39 26.1876L1306.83 74.0918L1524 35.7685V0H1306.83H1088.39H871.22H652.78H435.61H217.17H0V61.3174Z" fill="#00CC8E"/>
<path d="M0 125.19L217.17 134.77L435.61 109.222L652.78 141.158L871.22 121.996L1088.39 157.126L1306.83 220.998L1524 102.834V34.491L1306.83 72.8143L1088.39 24.9102L871.22 47.2654L652.78 56.8463L435.61 37.6846L217.17 31.2974L0 60.0399V125.19Z" fill="#00B388"/>
<path d="M0 189.062L217.17 211.417L435.61 157.126L652.78 224.192L871.22 211.417L1088.39 220.998L1306.83 268.902L1524 166.707V101.557L1306.83 219.721L1088.39 155.848L871.22 120.719L652.78 139.88L435.61 107.944L217.17 133.493L0 123.912V189.062Z" fill="#009B7F"/>
<path d="M0 320H217.17H435.61H652.78H871.22H1088.39H1306.83H1524V165.429L1306.83 267.625L1088.39 219.721L871.22 210.14L652.78 222.914L435.61 155.848L217.17 210.14L0 187.785V320Z" fill="#038373"/>
</svg>
