<svg width="411" height="137" viewBox="0 0 411 137" fill="none" xmlns="http://www.w3.org/2000/svg">
<g clip-path="url(#clip0_29_31)">
<path d="M0 45.4384L58.91 60.5084L117.135 46.8084L176.045 50.9184L234.955 65.9884L293.865 52.2884L352.09 59.1384L411 57.7684V34.0218L352.09 25.8018L293.865 35.3918L234.955 38.1318L176.045 39.5018L117.135 32.6518L58.91 44.9818L0 25.8018V45.4384Z" fill="#00917B"/>
<path d="M0 79.6884L58.91 96.1284H117.135L176.045 85.1684L234.955 87.9084L293.865 102.978L352.09 97.4984L411 100.238V57.3117L352.09 58.6817L293.865 51.8317L234.955 65.5317L176.045 50.4617L117.135 46.3517L58.91 60.0517L0 44.9817V79.6884Z" fill="#00A081"/>
<path d="M0 97.4984L58.91 108.458L117.135 109.828L176.045 100.238L234.955 107.088L293.865 112.568L352.09 111.198L411 109.828V99.7817L352.09 97.0417L293.865 102.522L234.955 87.4517L176.045 84.7117L117.135 95.6717H58.91L0 79.2317V97.4984Z" fill="#00AE87"/>
<path d="M0 115.308L58.91 123.528L117.135 122.158L176.045 119.418L234.955 116.678L293.865 119.418L352.09 124.898H411V109.372L352.09 110.742L293.865 112.112L234.955 106.632L176.045 99.7817L117.135 109.372L58.91 108.002L0 97.0417V115.308Z" fill="#00BD8B"/>
<path d="M0 137.228H58.91H117.135H176.045H234.955H293.865H352.09H411V124.442H352.09L293.865 118.962L234.955 116.222L176.045 118.962L117.135 121.702L58.91 123.072L0 114.852V137.228Z" fill="#00CC8E"/>
<path d="M0 26.2583L58.91 45.4383L117.135 33.1083L176.045 39.9583L234.955 38.5883L293.865 35.8483L352.09 26.2583L411 34.4783V0H352.09H293.865H234.955H176.045H117.135H58.91H0V26.2583Z" fill="#038373"/>
</g>
<defs>
<clipPath id="clip0_29_31">
<rect width="411" height="137" rx="16" fill="white"/>
</clipPath>
</defs>
</svg>
