<svg id="visual" viewBox="0 0 600 600" width="600" height="600" xmlns="http://www.w3.org/2000/svg" xmlns:xlink="http://www.w3.org/1999/xlink" version="1.1"><path d="M0 115L86 199L171 145L257 175L343 169L429 157L514 115L600 151L600 0L514 0L429 0L343 0L257 0L171 0L86 0L0 0Z" fill="#038373"></path><path d="M0 199L86 265L171 205L257 223L343 289L429 229L514 259L600 253L600 149L514 113L429 155L343 167L257 173L171 143L86 197L0 113Z" fill="#00917b"></path><path d="M0 349L86 421L171 421L257 373L343 385L429 451L514 427L600 439L600 251L514 257L429 227L343 287L257 221L171 203L86 263L0 197Z" fill="#00a081"></path><path d="M0 427L86 475L171 481L257 439L343 469L429 493L514 487L600 481L600 437L514 425L429 449L343 383L257 371L171 419L86 419L0 347Z" fill="#00ae87"></path><path d="M0 505L86 541L171 535L257 523L343 511L429 523L514 547L600 547L600 479L514 485L429 491L343 467L257 437L171 479L86 473L0 425Z" fill="#00bd8b"></path><path d="M0 601L86 601L171 601L257 601L343 601L429 601L514 601L600 601L600 545L514 545L429 521L343 509L257 521L171 533L86 539L0 503Z" fill="#00cc8e"></path></svg>