<svg id="Grupo_2217" data-name="Grupo 2217" xmlns="http://www.w3.org/2000/svg" width="297.94" height="313.973" viewBox="0 0 297.94 313.973">
  <g id="Grupo_2087" data-name="Grupo 2087" transform="translate(0 131.107)">
    <rect id="Rectángulo_3361" data-name="Rectángulo 3361" width="1.162" height="1.162" transform="matrix(0.801, -0.599, 0.599, 0.801, 124.597, 0.696)" fill="#fff"/>
    <path id="Trazado_3329" data-name="Trazado 3329" d="M4977.546,147.04l-1-.6,1.2-2.005,1,.6Zm3.309-5.515-1-.6,1.205-2.005,1,.6Zm3.311-5.515-1-.6,1.2-2.006,1,.6Zm3.309-5.515-.995-.6.816-1.361.782-.586.7.93-.6.45Zm4.579-4.069-.7-.93,1.875-1.4.692.93Zm5.148-3.854-.7-.93,1.873-1.4.7.93Z" transform="translate(-4877.058 -117.092)" fill="#fff"/>
    <path id="Trazado_3330" data-name="Trazado 3330" d="M4966.446,224.409h-1.491v-1.162h.833l.428-.714,1,.6Z" transform="translate(-4868.831 -189.674)" fill="#fff"/>
    <path id="Trazado_3331" data-name="Trazado 3331" d="M4804.566,226.154h-2.326v-1.162h2.326Zm-6.4,0h-2.325v-1.162h2.325Zm-6.4,0h-2.328v-1.162h2.328Zm-6.4,0h-2.325v-1.162h2.325Zm-6.4,0h-2.327v-1.162h2.327Zm-6.4,0h-2.327v-1.162h2.327Zm-6.4,0h-2.327v-1.162h2.327Zm-6.4,0h-2.326v-1.162h2.326Zm-6.4,0h-2.326v-1.162h2.326Zm-6.4,0h-2.325v-1.162h2.325Z" transform="translate(-4712.514 -191.418)" fill="#fff"/>
    <path id="Trazado_3332" data-name="Trazado 3332" d="M4725.8,226.735h-1.162v-1.743h1.742v1.162h-.58Z" transform="translate(-4698.31 -191.419)" fill="#fff"/>
    <path id="Trazado_3333" data-name="Trazado 3333" d="M4713.819,266.711l-.835-.806,1.668-1.733.837.806Zm3.71-5.588h-1.162v-2.406h1.162Zm0-6.616h-1.162V252.1h1.162Zm0-6.615h-1.162v-2.406h1.162Z" transform="translate(-4690.043 -205.96)" fill="#fff"/>
    <path id="Trazado_3334" data-name="Trazado 3334" d="M4699,328.049h-1.409v-1.162h.917l.634-.659.835.806Z" transform="translate(-4679.124 -263.251)" fill="#fff"/>
    <path id="Trazado_3335" data-name="Trazado 3335" d="M4662.553,329.659h-2.307V328.5h2.307Zm-6.344,0H4653.9V328.5h2.307Z" transform="translate(-4648.122 -264.861)" fill="#fff"/>
    <path id="Trazado_3336" data-name="Trazado 3336" d="M4635.161,330.24H4634V328.5h1.742v1.162h-.582Z" transform="translate(-4634 -264.861)" fill="#fff"/>
    <path id="Trazado_3337" data-name="Trazado 3337" d="M4635.161,366H4634v-2.515h1.161Zm0-6.918H4634v-2.515h1.161Zm0-6.917H4634v-2.516h1.161Z" transform="translate(-4634 -279.872)" fill="#fff"/>
    <path id="Trazado_3338" data-name="Trazado 3338" d="M4635.742,422.847H4634V421.1h1.161v.581h.582Z" transform="translate(-4634 -330.57)" fill="#fff"/>
    <path id="Trazado_3339" data-name="Trazado 3339" d="M4750.511,421.5h-2.289V420.34h2.289Zm-6.3,0h-2.286V420.34h2.286Zm-6.294,0h-2.291V420.34h2.291Zm-6.294,0h-2.29V420.34h2.29Zm-6.3,0h-2.289V420.34h2.289Zm-6.294,0h-2.291V420.34h2.291Zm-6.3,0h-2.289V420.34h2.289Zm-6.293,0h-2.292V420.34h2.292Zm-6.3,0h-2.288V420.34h2.288Zm-6.3,0h-2.289V420.34h2.289Zm-6.294,0h-2.291V420.34h2.291Zm-6.3,0h-2.289V420.34h2.289Zm-6.293,0h-2.289V420.34h2.289Zm-6.295,0h-2.291V420.34h2.291Zm-6.3,0h-2.29V420.34h2.29Zm-6.295,0h-2.289V420.34h2.289Zm98.462-.088-.057-1.161,2.287-.113.056,1.161Zm6.287-.311-.058-1.16,2.289-.113.056,1.16Zm6.287-.31-.056-1.161,2.287-.113.057,1.161Zm6.292-.311-.058-1.16,2.284-.113.059,1.161Z" transform="translate(-4648.045 -329.225)" fill="#fff"/>
    <rect id="Rectángulo_3362" data-name="Rectángulo 3362" width="1.161" height="1.162" transform="translate(131.594 89.785) rotate(-2.826)" fill="#fff"/>
  </g>
  <g id="Grupo_2088" data-name="Grupo 2088" transform="translate(59.591)">
    <rect id="Rectángulo_3363" data-name="Rectángulo 3363" width="1.162" height="1.162" transform="translate(168.303 59.156) rotate(-69.074)" fill="#fff"/>
    <path id="Trazado_3340" data-name="Trazado 3340" d="M5426.268-235.018l-1.085-.415.85-2.22,1.086.415Zm2.338-6.1-1.088-.415.85-2.22,1.086.415Zm2.335-6.1-1.085-.415.848-2.22,1.085.415Zm2.334-6.1-1.085-.415.85-2.22,1.084.415Zm2.335-6.1-1.085-.415.851-2.22,1.084.415Zm2.335-6.1-1.085-.415.849-2.22,1.088.415Z" transform="translate(-5254.978 289.619)" fill="#fff"/>
    <path id="Trazado_3341" data-name="Trazado 3341" d="M5473.892-284.906l-1.085-.415.08-.213-.225.021-.109-1.157,2.087-.194Z" transform="translate(-5288.589 302.877)" fill="#fff"/>
    <path id="Trazado_3342" data-name="Trazado 3342" d="M5297.825-282.031h-2.184v-1.162l2.215-.008.108,1.157Zm-6.155,0H5289.4v-1.162h2.271Zm-6.243,0h-2.269v-1.162h2.269Zm-6.24,0h-2.269v-1.162h2.269Zm-6.242,0h-2.269v-1.162h2.269Zm-6.242,0h-2.269v-1.162h2.269Zm-6.24,0h-2.269v-1.162h2.269Zm41.455-.38-.108-1.157,2.26-.21.106,1.156Zm6.214-.577-.107-1.157,2.258-.21.106,1.157Zm6.214-.577-.106-1.156,2.258-.21.108,1.157Z" transform="translate(-5136.492 301.507)" fill="#fff"/>
    <path id="Trazado_3343" data-name="Trazado 3343" d="M5238.259-277.069l-1.08-.431.58-1.444h1.555v1.162h-.771Z" transform="translate(-5121.578 297.259)" fill="#fff"/>
    <rect id="Rectángulo_3364" data-name="Rectángulo 3364" width="2.801" height="1.162" transform="matrix(0.371, -0.929, 0.929, 0.371, 112.743, 26.913)" fill="#fff"/>
    <path id="Trazado_3344" data-name="Trazado 3344" d="M5219.017-231.791h-1.555v-1.162h.769l.284-.713,1.078.431Z" transform="translate(-5107.589 265.132)" fill="#fff"/>
    <path id="Trazado_3345" data-name="Trazado 3345" d="M5083.247-236.173H5080.8v-1.162h2.449Zm-6.734,0h-2.451v-1.162h2.451Zm-6.736,0h-2.448v-1.162h2.448Zm-6.732,0H5060.6v-1.162h2.449Zm-6.735,0h-2.448v-1.162h2.448Zm-6.732,0h-2.45v-1.162h2.45Zm-6.736,0h-2.449v-1.162h2.449Zm-6.75-1.123-1.746-1.717.815-.829,1.746,1.717Z" transform="translate(-4977.659 269.513)" fill="#fff"/>
    <path id="Trazado_3346" data-name="Trazado 3346" d="M5021.378-253.175l-1-.985v-1.405h1.163v.918l.653.644Z" transform="translate(-4967.746 280.67)" fill="#fff"/>
    <path id="Trazado_3347" data-name="Trazado 3347" d="M5021.539-306.739h-1.163v-2.336h1.163Zm0-6.425h-1.163V-315.5h1.163Zm0-6.424h-1.163v-2.336h1.163Z" transform="translate(-4967.746 327.755)" fill="#fff"/>
    <path id="Trazado_3348" data-name="Trazado 3348" d="M5020.118-340.257h-1.161v-.581h-.581V-342h1.741Z" transform="translate(-4966.327 342)" fill="#fff"/>
    <path id="Trazado_3349" data-name="Trazado 3349" d="M4974.735-340.838h-1.992V-342h1.992Zm-5.479,0h-1.993V-342h1.993Zm-5.479,0h-1.993V-342h1.993Z" transform="translate(-4926.172 342)" fill="#fff"/>
    <path id="Trazado_3350" data-name="Trazado 3350" d="M4944.94-340.257h-1.162V-342h1.744v1.162h-.582Z" transform="translate(-4913.395 342)" fill="#fff"/>
    <path id="Trazado_3351" data-name="Trazado 3351" d="M4944.939-317.427h-1.161v-1.9h1.161Zm0-5.225h-1.161v-1.9h1.161Z" transform="translate(-4913.395 329.62)" fill="#fff"/>
    <path id="Trazado_3352" data-name="Trazado 3352" d="M4943.522-286.832h-1.743v-1.162h.582v-.581h1.161Z" transform="translate(-4911.978 304.092)" fill="#fff"/>
    <path id="Trazado_3353" data-name="Trazado 3353" d="M4888.789-285.412h-2.42v-1.162h2.42Zm-6.653,0h-2.421v-1.162h2.421Zm-6.653,0h-2.419v-1.162h2.419Z" transform="translate(-4863.221 302.672)" fill="#fff"/>
    <path id="Trazado_3354" data-name="Trazado 3354" d="M4853.647-284.832h-1.161v-1.743h1.742v1.162h-.581Z" transform="translate(-4848.62 302.672)" fill="#fff"/>
    <path id="Trazado_3355" data-name="Trazado 3355" d="M4853.646-221.993h-1.161v-2.229h1.161Zm0-6.131h-1.161v-2.229h1.161Zm0-6.131h-1.161v-2.229h1.161Zm0-6.131h-1.161v-2.23h1.161Zm0-6.131h-1.161v-2.23h1.161Zm0-6.131h-1.161v-2.229h1.161Zm0-6.131h-1.161v-2.23h1.161Zm0-6.131h-1.161v-2.229h1.161Z" transform="translate(-4848.62 288.884)" fill="#fff"/>
    <path id="Trazado_3356" data-name="Trazado 3356" d="M4851.047-95.875l-.816-.828.655-.644v-.918h1.161v1.405Z" transform="translate(-4847.02 169.058)" fill="#fff"/>
    <path id="Trazado_3357" data-name="Trazado 3357" d="M4840.335-83.016h-1.162v-1.405l1-.985.814.829-.655.644Z" transform="translate(-4839.173 159.933)" fill="#fff"/>
    <path id="Trazado_3358" data-name="Trazado 3358" d="M4840.916-71.116h-1.742v-1.743h1.162v.581h.58Z" transform="translate(-4839.173 151.03)" fill="#fff"/>
    <path id="Trazado_3359" data-name="Trazado 3359" d="M4867.208-78.437h-.332v-.675l-.315-.32,1.7-1.669.815.828Zm-4.66,0h-2.472V-79.6h2.472Zm18.94-3.577h-2.474v-1.162h2.474Zm-6.8,0h-2.472v-1.162h2.472Z" transform="translate(-4854.004 158.351)" fill="#fff"/>
    <path id="Trazado_3360" data-name="Trazado 3360" d="M4950.437-83.433H4948.7v-1.162h.581v-.581h1.161Z" transform="translate(-4916.885 159.77)" fill="#fff"/>
    <rect id="Rectángulo_3365" data-name="Rectángulo 3365" width="1.162" height="2.118" transform="translate(32.391 68.769)" fill="#fff"/>
    <path id="Trazado_3361" data-name="Trazado 3361" d="M4951.857-122.25h-1.163v-1.743h1.743v1.162h-.58Z" transform="translate(-4918.303 187.312)" fill="#fff"/>
    <path id="Trazado_3362" data-name="Trazado 3362" d="M4974.632-122.83H4972.8v-1.162h1.833Zm-5.047,0h-1.834v-1.162h1.834Z" transform="translate(-4930.405 187.312)" fill="#fff"/>
    <path id="Trazado_3363" data-name="Trazado 3363" d="M5004.241-124.249H5002.5v-1.162h.583v-.581h1.16Z" transform="translate(-4955.062 188.731)" fill="#fff"/>
    <rect id="Rectángulo_3366" data-name="Rectángulo 3366" width="1.162" height="1.7" transform="translate(48.018 58.063)" fill="#fff"/>
    <path id="Trazado_3364" data-name="Trazado 3364" d="M5005.661-156.593H5004.5v-1.743h1.743v1.162h-.58Z" transform="translate(-4956.479 211.68)" fill="#fff"/>
    <path id="Trazado_3365" data-name="Trazado 3365" d="M5033.752-156.861l-.507-.312h-1.5v-1.162h1.826l.786.484Zm-6.244-.312h-2.42v-1.162h2.42Z" transform="translate(-4971.091 211.68)" fill="#fff"/>
    <path id="Trazado_3366" data-name="Trazado 3366" d="M5068.336-146.648l-.214-.9-.783-.483.608-.989,1.2.735.324,1.365Z" transform="translate(-5001.07 205.068)" fill="#fff"/>
    <path id="Trazado_3367" data-name="Trazado 3367" d="M5079.92-85.712l-1.07-.449.849-2.026,1.071.449Zm2.335-5.571-1.071-.449.848-2.026,1.071.449Zm-.936-5.839-.507-2.137,1.127-.269.509,2.137Zm-1.4-5.877-.506-2.137,1.129-.269.506,2.137Zm-1.4-5.877-.506-2.137,1.131-.268.506,2.137Zm-1.4-5.877-.5-2.137,1.13-.269.506,2.137Zm-1.394-5.877-.508-2.137,1.132-.269.507,2.137Zm-1.4-5.877-.507-2.137,1.131-.269.507,2.137Z" transform="translate(-5005.677 190.802)" fill="#fff"/>
    <path id="Trazado_3368" data-name="Trazado 3368" d="M5084.74,33.077l-.646-1.276.553-1.319,1.071.449-.345.824.4.8Z" transform="translate(-5012.957 77.704)" fill="#fff"/>
    <rect id="Rectángulo_3367" data-name="Rectángulo 3367" width="1.162" height="1.162" transform="translate(74.023 115.217) rotate(-26.79)" fill="#fff"/>
  </g>
  <g id="Grupo_2218" data-name="Grupo 2218">
    <path id="Trazado_3369" data-name="Trazado 3369" d="M5193.269,226.847l.2,2.076.293.437-.038,1.348-.455,2.222.583.583-.8.419.347.455-.092,1.2-.344.109-.165.929.126,1.238-1.456,1.147.494,1.766-.4.692.074,1.657.346.656-.217,1.038-.783.929-.639,2.04-.382.8.218.492,1.748-.528.474.728,1.24.419.619.619.854-.036,1.239-1.074.763-.091,1,.583.074.8.765,1.2v.8l-.839,1.548.2.728-.417.619.583,1.256-.512,1.074-.271,1.165-.838,1.8-.509.619-1.093.637-1.95,1.93v.619l-.91.874-.147.656.421,1.111-1.857,2.076-1.64,1.348-1.619.146-1.312-.346-.328-.564,1.347-1.348-.706-1.457-2.608.8-.526.619-.345-.655-.912.182-.217.692-1.077-.728-1.513.2-.107.528-1.093.51-.418.692-1.458.692-1.22,1.147.256,1.238-.256.455-1.784.31-1.583,1.038-.6.911-.528-.273-.874.164-1,1.348-2.349.182-1.368-.91-.671-1.766.035-2.549.8-2.713.819-2.112.308-1.8-.092-1.275.294-1.42,1.165-3.223,1.257-2.422.782-.765,1.585.146.6-.346.162-.692.783-.929-.362-1.074.089-1.73.82-1.184,1.219-2.549.4-2.295,1.059-1.93.927-1.074.873-.273,2.241-1.6-1-1.275.129-2.24.382-.565.911-.437-.165-1.912.347-.965-.31-2.2.767-.91,1.82-.091.709-.492h1.258l1.291-2.2,1.185-.528,4.208-.073Z" transform="translate(-5015.163 -68.605)" fill="#b3cfc0"/>
    <g id="Grupo_2090" data-name="Grupo 2090" transform="translate(79.365 39.527)">
      <path id="Trazado_3336-2" data-name="Trazado 3336" d="M4916.507-202.063a9.982,9.982,0,0,0-1.386-.737.967.967,0,0,1-.713-.785.875.875,0,0,0-.946-.792.874.874,0,0,0-.534.245,9.873,9.873,0,0,0-.76.666,4.4,4.4,0,0,1-.822.745c-.61.319-.816.936-1.2,1.421-.135.729.014,1.514-.451,2.172a9.994,9.994,0,0,1-.961,1.112,1.68,1.68,0,0,0-.216,2.159c-.165.684-.292,1.251-.441,1.809a2.28,2.28,0,0,1-.277.714c-.466.656-.437,1.019.249,1.419.292.17.531.259.459.679a8.253,8.253,0,0,0,.047.919,13.283,13.283,0,0,0-.135,1.761,1.824,1.824,0,0,1-.242,1.117c-.319.555-.617,1.123-.926,1.686.017.425.031.852.047,1.281a3.037,3.037,0,0,0,.3.667,1.511,1.511,0,0,0,.638.541.748.748,0,0,0,.613-.273,9.363,9.363,0,0,0,.927-1.42c.479-.931.912-1.886,1.366-2.83l.244-1.494a1.007,1.007,0,0,0,.049-.206,2.713,2.713,0,0,1,.907-2.258,1.712,1.712,0,0,0,.5-1.013,12.181,12.181,0,0,0,0-1.413.985.985,0,0,1,.269-.456c.136-.166.43-.3.438-.461.048-.841.015-1.686.04-2.531.007-.3-.038-.509-.371-.564-.285-.046-.295-.21-.165-.423a1.486,1.486,0,0,0,.423-.007,6.725,6.725,0,0,0,.664-.282l-.32-.471.248-.157c-.025-.2-.052-.4-.077-.6l-.183-.217c.077-.142.118-.328.234-.419a2.682,2.682,0,0,1,2.15-.761.656.656,0,0,0,.436-.208c.034-.031-.041-.285-.126-.336m-2.826,2.678.02-.2-.02.2" transform="translate(-4907.249 204.825)" fill="#b3cfc0"/>
      <g id="Grupo_2089" data-name="Grupo 2089" transform="translate(14.233 0)">
        <path id="Trazado_3370" data-name="Trazado 3370" d="M5048.754,347.81l.1-.719.25-.523-.629.17-.574.627.274.745Z" transform="translate(-5021.286 -186.103)" fill="#b3cfc0"/>
        <path id="Trazado_3371" data-name="Trazado 3371" d="M5194.407,14.2l.315-1.02L5194,12.043l-.381-1.974-.339-.5-.208-.915-.382-.549-.233-1.02-.366-.627L5192,5.416l-.575-1.347-.837-1.111.34-.719-.092-1.124-.733-.2-.469-.706-.458-1.412.432-1.019-.065-.523-.536-.8-.758-.353-.929-1.36-.391-.249-1.858-1.974-1.1.052.052-1.046-.418-.824-1.295-.2-.77-.274-.445-.419-1.06.052-.5.34V-10.4l3.347-3.164,3.333-3.177h.719v-.719l.588-.405.367-1.046-.392-1.019-1.137-.771.065-.588-.537-.968-.248-1.294-.274-.327-.354-.941-1.593.2-.707-.6-.249-1.281-.443-.954-.235-1.66-.366-1.046-1.229-1.987-.067-1.242.132-.719-.065-1.163-.444-.967-.6-.444-.534-1.242.588-2.118.119-1.36-.145-.941.234-1.346.484-1.438-.692-1.66.247-.876-.417-.889.116-.523.59-.993.848-.693,1.766-1.033.68-1.32-.314-1.046.235-2.445.235-.967,2.574-2.823-.025-.327-.758-.8-.261-1.059.352-1.111-1.346-.941-1.882-.248h-.877l-.888-.353-1.764.941-.393.6-.641.34-.953-.17-.979-.353-1.713.379-.76.444-.836.118-1.19-.118-.848.118-1.347.654-.811-.327-.407.248-1.084.1-1.738-.327-.667-.392-.771-.078-.994.118-.3-.392-1.608-.052-.694-.144-.575.993-.68.366-.433.575-1.281.17-.575-.837-1.279.562-.093-.052-2.707-3.491-2.718-3.49-2.693-3.451-2.693-3.451-1.531.2-1.2.471-.667-.052-.954-.837-1.646-.222-.575-.418-.235-.523-1.166.1-.941-.523-.469.026-2.458.5-.693.562-.928.274-.511.366-.718.1-.68-.248-.432-.5-.9.274-1.819-.222-.836.2-1.059-.392-.472.34-.484-.34-.667.144-.979-.092-.328-.3-.627-.078v.405l-.837-.078-.221-.471-.562.026-1.06.418-.21.248-1.28.118-.6.157-.393.026-1.189-.575-1.856-3.661.143-1.582-1.072-.471-1.9.275-1.045-.392-.366-1.02-.535-.588.235-.967-.262-.536-.118-1.935.693-1.974-.457-1.111,1.556-1.451-.064-1.137.129-.968-.117-1.347-.21-.5-.04-1.333-3.478-3.948-.589-.144-1.854-7.569-.406-.065-.444-.549-.679.327-1.113.222-.692-.771.237-.51-.21-1.111-.484-.64-.824.3-.339.615-.694.17-.981.758-.928.222-.6-.222-.758.052.315-.34.626-1.7.772-1.582.745-.654-.026-.379.955-1.425.548-.2.276-.732.811-1.164.469-1.4.836-.732.13-.523-.339-.039-.484-.549.093-1.2,1.149-2.994-.208-1.007.144-.889.444-.706.968-1.2.3-.614,1.463-2.379.929-1.765,1.02-2.837.718-1.595.575-.64.5-1.49.717-.667.341.052,1.282-.51,1.5.2,2.171-4.013,2.169-4.013,5.072-1.268.771-.327,2.823-.68.171-.484-.5.118.627-.536,1.02-1.176.8-.314,1.177-1.124.17-.445-.263-1.019-1.528-3.1-.719-.588-1.164-.144-.508-.34-.812-.026-.758-.732-1.216-.314-1.66-.052-.51.222.809-.026.42.248-.379.458h-.432l-.2.484-.393-.536-.509.81-.875.562v-.9l-1.676,1.1.511.51.576,1.1-.722.118-.429.562-.721.1-.144-.588.38-.981-1.307.275-1.646.091-.211.222.563.588.067,1.046-.747,1.686-.6.758-.156.954-.683.17-.221.432-2.038,1.124-.209-.235-.681.118-.419.536-.535-.052-.73.366-1.857.471-1.49,1.177-.13.536-.51.392-1.282.144-1.163,1.072-1.032.562-.5.444-1.059.68-.262.562-2.09,1.4-1.659.144-.9-.118-1.28.118-1.806.026-2.024-.092-2.68-1.255-2.21.2-.482.275-.185.588-.836.9.339,1.49-.128,1.2-1.021,1.033-1.582.288-1.765-.091-.9-.3-2.457-1.1-1.582-.392-.812.392-1.149,1.2-.561.34-.863,1.072-2.224,1.347-.692.274-.354.052-.221.954-.589.419-1.174.418-.929.824v.5l-.9.34.549,1.229.08.758-.353.078-.171-.719-.85,1.281.6.536.116,1.085-.273.392-.5.091-.458-.431-.469,1.516-1.034.928.013.222,1.164-.706.719-.758.744-.3-.208.64.366.615-.6.2-.184.444-.378-.079.327.562-.183.222.6.275.119.98-.575.366-.38.667-.482,1.477-.026.732-.641.981-.472.274.655.052.719.288.549.863.078.758-.17.64-1.02,1.948-.81.288-1.346-.144-1.02-.222-1.413.222-.548.5-1.437.536-.838.641v.562l-.927.771-.169,1.347-1,1.085-.366,1.059-1.19.719-.367.615-1.02.418-.692,1.007-1.006.471-.811.64-.877.471-.482.64-1.4.471-1.556.34-.812.863-.156.419h.393l1.269.693.614.981.575,1.281-.353,1.111.589,2-.12,1.189h.158l-.065,1.87-.209.5-1.294.34-.837-.039-.5-.222-.223-1.111.223-.693,1.033.288-.26-.562.456.118-.247-.9-.563.222.681-.627-.784.052-.5.64-.276-1.033.276-.1-.576-.811.209-.562-.471-.222-1.175-.327-.355-.915-.927-1.2-1.53-.981-.367-.823-.574-.366-1.046-1.333-.483,1.085-.8,1.163.353.915.836.758.575,2.17,1.228,1.111.628,1.673.393,1.83-.274.693.118.562-1.164.575-1.2.863-1.072,1.5-1.294,1.556-.3.993-.72.366-.862-1.8-.928-.614-.458.052-.21.51.513,2.079-1.819.588-.94,1.712-.379,1.137-.039.614.641.994,1.581,1.386.6.248.445.588.117.5.459.444-.119.444-.458.275-.171.941.511.065,1.4.968.341.353.613,1.529-.118.471.536.144.157-.693.667-.222.628.222.118.693.928,1.268.091.588-.3.523-.093,1.53-.744.209.234.2-.143,1.281-.315.445-.927-.536-.17,1.164.589,1.111.128.614.721,1.1.234-.471.694,1.608-.118.366.234.85.667,1.255.353.327-.417,1.072-1.021.811-.6.915-.836-.2-.746.379-.6.039-.443,1.4.508.222,1.034-.131.1.719.614.026-.4.719.144,1.046.275.118.287.8-.418-.3-.209,1.66.668-.222-.443.993.1.771.367,1.268-.157,1.137.6,1.935.628.667.406.719-.222.131-.562-.6-.026.824.352.667-.26.405-.21,1.634.21.274-.523.3-.027,1.307-1.162,1.268-.12.405.419.392-.536.275.209.418-1.137-.091.079-.824-.418,1.242.9-.026-.744.5.169.549,1.058-.575,1.021.052-.34.745-.692.444.011,1.347,1.047,1.386.469-.366.459-1.621.863-.392.548.562-.221,1.1.209.1-1.635.614.092.353.7.274-.47.471.928.222.771-.3,1.242-.17,1.307-.471-.783.889-.172.771-.666-.1-.4.876-.105,1.046.34-.131.052.6-.718.719-1.308.5L5031-21.423l.275.1-.224,1.19-.561.222-.146.379-.548-.026-1.581,1.438.628.575-.145.327-.6.092-1.268,1.739-.6.5.511.1-.72.353-.208-.379-.628,1.02.366-.2.653.17-.994,1.7h.759l-1.02.811-.511.1-.392.418.784.131-1.32.471-.209,1.464-1.084-1.019-.209,1.1-.3-.5-.079.8-.667-.131-.235-.17-.837,1.1-.809.667-.093-.667-.485-1.1h-.626l-.666.275-.119.614-1.109,1.1-.093-.523-.537.471-.118.9.184.575-.574-1.046-.381-.353-.092-.523-.576.026-.627.824-1.28.719-.341.915-.587.954-.1.523.39,1.516.627.144-.2,1.1-1.122.222-.314-.144-.093,1.909.746-.2.509.8-.065.993.534.052.041,1.66-.236.353-2.352-.17-.354-.131-2.013-.275-.353.549-2,2.314.024.575,1.609,1.373.183.523.693-.052-.054.366,1.218,1.177,1.241.967.616.967h.458l.809,1.072,1.791.274,1.556,1.477.576.745,1.372.274.693.745,1.36,1.072.679.366,1.595,1.124,1.256.327.575-.052,1.516-.523,1.059-.222.72.17.209.444-.366.981.039.418.68.667,1.675.628.457.627-.158.745.119.745.85,1.4.207.5.721.222.745-.327,1.256.5.666.078.89-.327h.9l.55.941,1.829.1.21.419.836.327.837-.2.98.392-.406-.64.511-.131,1.424.131.575.2.6.85,1.556-.745.953.026-.053-2.066,1.257.065.458-.614.928.392,1.633.222.432.8.538-.091,1.228.562.3,1.007.561.366.328.654.823.863,1.019.771,1.884.484,1.319-.484.9,1.2,1.725.719.457.523.681-.052,1.085.275.575.3,1.005-1.216,1.662.614,1.815,1.294.551.771.38-.118.756.549.771-.471.065-.523,1.112,1.216.538.941.023.745.6-.065.236.588.64-.314.955.615.508,1.2.354-.248,1.267.745-.024.64.508.222.315,1.529.274.745-.378.523.837.588.468.8.551.249-.158.9-.862-.052.677.523.133.994,1.227.6.812.17.823.405.668-.68.392,1.347.274.183.706-.209-.089.549.717-.118.823,1.595,1.372.366.185-.64.509.64.721-.052,1.005.6.159.667.417.052.117.627.341.5-.367.392.483.078.262.6.548.392.209.706-.182.392.562.3-.079.274-.667.667-.417,1.425,1.318.274.51.745.836-.052.955.549-.079-.575.862.026.157.3.286-.824.551.745.719.444.078.732.628.248-.17,1.935.276.6.025.588.51.078-.535.523-.484.967-.718.379.26.575.811.771-.168.523.861-.131-.089.549.366-.549.772.549.691-.379.027.85.574.654-.236.562,2.392-1.137.564.575.221-.771.471.314.246.68.327-.131.355-1.137,1.044.248.483.274,1.06-.078,1.243.078.274.811.511.209,1.136-.405.719-.471.9.052.418.549.09-.85.863-.693.548-.68.98.523.433-.144.563.222-.146-.941.889-.183.575-1.712.446.131.366-.484.72-.419.26.248.091.9,1.269-.078,1.882.575-.025,1.085.261.078.248-.85.954.654.457.941v.431l.955-.353.444-.5.459.078v.588l.6-.615.718.445.354-.445.575.026-.013-.771.967-.405,1.072.327-.288-1.4,1.308.823.849-.274.537.131.484.719.717.17.655.6.9.3.093.8.47-.026.3.34-.3.5.458.549.6-.392-.275-.628.394.052.81.628.562-.209.392.823.484.052,1.045-.222.8.2-.1.3-.757.445.419.248,1.044-.274.458.405-.04.994.3.144.432-.5.379.5-.143.876.6-.274.261-.6.417.274.131,1.346-2.627,4.366-2.628,4.366-2.288,3.739-2.288,3.739.379.092.785.653.929-.026,1.175.471,1.045-.418.837-.9.484.157,1.164.026.719.288.536.9.391,1.268.444.745.824.8.5.641,1.593,1.739.824-4.432.812-4.419.824-4.432.81-4.432.927-5.007.928-5.02.929-5.007.563-2.954.939-5.621V56.948l.38-.745.066-.693.367-1.15-.367-1.595.562-1.294-.51-.994-.2-1.1-.64-.823-.6-.5-.446-1.216-1.2-1.569.666-1.569-.207-1.02-.447-1.294-1.437-.667-.809-.85-.692-.222-.877-.8-.654.026-1.53-1.647-.811-1.7.208-6.144.028-3.909.835-.471.811.052.223-.209,1.856-.144.929-.327.274-.549,1.124-.274.274.405,1.412-.823.575-.693h.417l1.491,1.294.118.274,1.177-.274.353.549.995-.026.234-.458.967.026V23.22l-.693-.458-.132-.418.342-.471-.146-.967.288-.575-.562-.771.183-.5-.508-.274-.066-.981-1.439-.771-.652-.144-.458.222-1.073.131-.641-.327-1.254.052-1.255-.3-.757.223v-.327l-.8-.091-1.021.562-.274-.144L5148.419,12l-.013-4.889.836.026.693-.457,1.556.078,1.371-.575,1.53.222.967.353,4.759.17,4.759.157,4.744.17,4.759.17-.027-.471-.483.052.185-.444-.367-.275-.471.118.117-.614-.811-.3.576-.745.234-.8.366-.654,1.373.484.576.614.5,1.177.941.836,1.4.575.445-.118,1.293-.732,1.084-1.307.47-.327,1.478-2.34,1.7-1.373,1.15.353,1.1,1.412,1.149,2.994.589.444.929,1.294.392,1.072.327,1.412.418.954.3,1.216.091,1.373-.143.771.235,1.869,3.412-.6ZM5066.963-20.4l-1.87.575-.378.444-.25-.471-.652.131-.158.5-.771-.523-1.084.144-.081.379-.783.366-.3.5-1.047.5-.875.824.184.889-.184.327-1.281.222-1.138.745-.43.654-.38-.2-.627.118-.72.967-1.685.131-.981-.653-.483-1.268.026-1.83.576-1.948.588-1.517.222-1.294-.065-.915.208-1.02.838-2.314.9-1.739.562-.549,1.137.1.432-.248.118-.5.562-.667-.261-.771.065-1.242.587-.85.876-1.83.288-1.647.758-1.386.666-.771.628-.2,1.607-1.15-.719-.915.091-1.608.276-.405.654-.314L5062.492-44l.249-.693-.222-1.582.547-.653,1.308-.065.511-.353h.9l.929-1.582.848-.379,3.02-.052,1.2.131.145,1.49.209.314-.027.967-.327,1.595.417.418-.574.3.25.327-.067.863-.248.078-.117.667.091.889-1.046.824.354,1.268-.289.5.052,1.19.25.471-.159.745-.561.667-.458,1.464-.274.575.158.353,1.254-.379.341.523.889.3.443.444.614-.026.89-.771.549-.065.719.418.053.575.55.863v.575l-.6,1.111.145.523-.3.444.419.9-.366.771-.2.837-.6,1.294-.366.445-.784.458-1.4,1.386v.444l-.653.628-.1.471.3.8-1.333,1.49-1.176.967-1.164.1-.942-.248-.235-.405.97-.967Z" transform="translate(-4990.563 174.999)" fill="#b3cfc0"/>
        <path id="Trazado_3372" data-name="Trazado 3372" d="M4965.111-199.4c-.076-.053-.273.066-.415.108-.4.042-.529-.237-.614-.547-.124-.45-.234-.9-.351-1.355v-.131l.532-.552.151-.164-.044-.009.009-.044-.214-.537a.415.415,0,0,1-.1-.028l-.142.092-.146.025-.04-.2h-.1l-.126,0-.207-.011c-.274-.005-.48-.077-.4-.42a.154.154,0,0,1-.006-.1l-.292-.569-.062-.275-.679-.137-.425-.134a.287.287,0,0,0-.1-.01l.118-.984.087-.114.03-.107-.265-.3a.072.072,0,0,1-.053-.009l-.143.081-.439.123-.33-.007-.417.123a.947.947,0,0,1-.169.215,1.01,1.01,0,0,0-.194,1.415,1.011,1.011,0,0,0,.226.219l.125.017.424.5a3.24,3.24,0,0,1,.742-.182c.406,0,.233.342.272.556l-.067.428.028.448-.64.782a.665.665,0,0,0,.215.07.671.671,0,0,1-.215-.07l-.22.045-.241-.075a.1.1,0,0,1-.092-.013l-.409.009-.139-.185-.546-.14-.975.793-.225.439c.156-.078.364-.132.522-.209-.158.078-.366.132-.522.209l-.032.283-.212.145a3.194,3.194,0,0,0-.825,2.083,2.855,2.855,0,0,1-.33,1.675c-.2.389-.31.865.215,1.179a.414.414,0,0,1,.175.243c.09.469.163.941.242,1.414q0,.44-.007.879c.038.157.029.364.127.458a1.478,1.478,0,0,0,.617.348c.1.026.248-.154.376-.242l-.012,0,.125-.108,1.412-.337.2-.017a2.03,2.03,0,0,1,.741-1.085,2.037,2.037,0,0,0-.739,1.085l.636-.441,1.358-1.189.216.01c.6.025,1.124-.062,1.273-.777a.76.76,0,0,1,.13-.239,2.15,2.15,0,0,0,.382-1.781,3.225,3.225,0,0,1,.019-1.05c.007-.078.134-.17.225-.209.234-.1.477-.169.717-.252a4.806,4.806,0,0,0,.415-.733.469.469,0,0,0-.141-.419Zm-2.91-4.218c.085.1.2.182.283.281C4962.4-203.431,4962.286-203.517,4962.2-203.615Z" transform="translate(-4956.254 205.91)" fill="#b3cfc0"/>
      </g>
    </g>
  </g>
</svg>
